<svg xmlns="http://www.w3.org/2000/svg" width="846" height="266" viewBox="0 0 846 266" role="img" aria-label="Top languages across public repos: TypeScript 64.8%, Swift 11.6%, Python 9.8%, JavaScript 9.5%, CSS 4.2%">
  
  <rect x="0.5" y="0.5" width="845" height="265" rx="6" fill="#04070a" stroke="#1a3324"/>
  <circle cx="22" cy="21" r="4" fill="none" stroke="#1a3324" stroke-width="1.5"/>
  <circle cx="38" cy="21" r="4" fill="none" stroke="#1a3324" stroke-width="1.5"/>
  <circle cx="54" cy="21" r="4" fill="none" stroke="#46f27a" stroke-width="1.5"/>
  <text x="72" y="25" font-family="ui-monospace, 'SF Mono', 'Cascadia Mono', Consolas, monospace" font-size="11" letter-spacing="2" fill="#ffb347">smgsankar@github — share of public code, by bytes</text>
  <line x1="1" y1="38.5" x2="845" y2="38.5" stroke="#1a3324"/>
  
  <text x="36" y="80" font-family="ui-monospace, 'SF Mono', 'Cascadia Mono', Consolas, monospace" font-size="12" fill="#d8ffe4">TypeScript</text>
  <rect x="186" y="70" width="548" height="12" rx="4" fill="rgba(70, 242, 122, 0.08)"/>
  <path d="M186 70 h544 a4 4 0 0 1 4 4 v4 a4 4 0 0 1 -4 4 h-544 z" fill="#46f27a"/>
  <text x="810" y="80" text-anchor="end" font-family="ui-monospace, 'SF Mono', 'Cascadia Mono', Consolas, monospace" font-size="11" fill="#ffb347">64.8%</text>
  <text x="36" y="114" font-family="ui-monospace, 'SF Mono', 'Cascadia Mono', Consolas, monospace" font-size="12" fill="#d8ffe4">Swift</text>
  <rect x="186" y="104" width="548" height="12" rx="4" fill="rgba(70, 242, 122, 0.08)"/>
  <path d="M186 104 h94.27282500360076 a4 4 0 0 1 4 4 v4 a4 4 0 0 1 -4 4 h-94.27282500360076 z" fill="#46f27a"/>
  <text x="810" y="114" text-anchor="end" font-family="ui-monospace, 'SF Mono', 'Cascadia Mono', Consolas, monospace" font-size="11" fill="#ffb347">11.6%</text>
  <text x="36" y="148" font-family="ui-monospace, 'SF Mono', 'Cascadia Mono', Consolas, monospace" font-size="12" fill="#d8ffe4">Python</text>
  <rect x="186" y="138" width="548" height="12" rx="4" fill="rgba(70, 242, 122, 0.08)"/>
  <path d="M186 138 h78.85336943684287 a4 4 0 0 1 4 4 v4 a4 4 0 0 1 -4 4 h-78.85336943684287 z" fill="#46f27a"/>
  <text x="810" y="148" text-anchor="end" font-family="ui-monospace, 'SF Mono', 'Cascadia Mono', Consolas, monospace" font-size="11" fill="#ffb347">9.8%</text>
  <text x="36" y="182" font-family="ui-monospace, 'SF Mono', 'Cascadia Mono', Consolas, monospace" font-size="12" fill="#d8ffe4">JavaScript</text>
  <rect x="186" y="172" width="548" height="12" rx="4" fill="rgba(70, 242, 122, 0.08)"/>
  <path d="M186 172 h76.707779346104 a4 4 0 0 1 4 4 v4 a4 4 0 0 1 -4 4 h-76.707779346104 z" fill="#46f27a"/>
  <text x="810" y="182" text-anchor="end" font-family="ui-monospace, 'SF Mono', 'Cascadia Mono', Consolas, monospace" font-size="11" fill="#ffb347">9.5%</text>
  <text x="36" y="216" font-family="ui-monospace, 'SF Mono', 'Cascadia Mono', Consolas, monospace" font-size="12" fill="#d8ffe4">CSS</text>
  <rect x="186" y="206" width="548" height="12" rx="4" fill="rgba(70, 242, 122, 0.08)"/>
  <path d="M186 206 h31.644073167218785 a4 4 0 0 1 4 4 v4 a4 4 0 0 1 -4 4 h-31.644073167218785 z" fill="#46f27a"/>
  <text x="810" y="216" text-anchor="end" font-family="ui-monospace, 'SF Mono', 'Cascadia Mono', Consolas, monospace" font-size="11" fill="#ffb347">4.2%</text>
</svg>