<svg xmlns="http://www.w3.org/2000/svg" width="846" height="318" viewBox="0 0 846 318" role="img" aria-label="GitHub stats for smgsankar: 11,189 contributions since 2019, 1,109 active days, 8 pull requests opened, 2 reviewed">
  
  <rect x="0.5" y="0.5" width="845" height="317" rx="6" fill="#04070a" stroke="#1a3324"/>
  <circle cx="22" cy="21" r="4" fill="none" stroke="#1a3324" stroke-width="1.5"/>
  <circle cx="38" cy="21" r="4" fill="none" stroke="#1a3324" stroke-width="1.5"/>
  <circle cx="54" cy="21" r="4" fill="none" stroke="#46f27a" stroke-width="1.5"/>
  <text x="72" y="25" font-family="ui-monospace, 'SF Mono', 'Cascadia Mono', Consolas, monospace" font-size="11" letter-spacing="2" fill="#ffb347">smgsankar@github — the numbers</text>
  <line x1="1" y1="38.5" x2="845" y2="38.5" stroke="#1a3324"/>
  
  <text x="36" y="96" font-family="Georgia, 'Times New Roman', serif" font-style="italic" font-size="40" fill="#46f27a">11,189</text>
  <text x="36" y="118" font-family="ui-monospace, 'SF Mono', 'Cascadia Mono', Consolas, monospace" font-size="9.5" letter-spacing="1.8" fill="#7fa88b">CONTRIBUTIONS SINCE 2019</text>
  <text x="226" y="96" font-family="Georgia, 'Times New Roman', serif" font-style="italic" font-size="40" fill="#46f27a">1,109</text>
  <text x="226" y="118" font-family="ui-monospace, 'SF Mono', 'Cascadia Mono', Consolas, monospace" font-size="9.5" letter-spacing="1.8" fill="#7fa88b">DAYS WITH COMMITS</text>
  <text x="36" y="188" font-family="Georgia, 'Times New Roman', serif" font-style="italic" font-size="40" fill="#46f27a">8</text>
  <text x="36" y="210" font-family="ui-monospace, 'SF Mono', 'Cascadia Mono', Consolas, monospace" font-size="9.5" letter-spacing="1.8" fill="#7fa88b">PULL REQUESTS OPENED</text>
  <text x="226" y="188" font-family="Georgia, 'Times New Roman', serif" font-style="italic" font-size="40" fill="#46f27a">2</text>
  <text x="226" y="210" font-family="ui-monospace, 'SF Mono', 'Cascadia Mono', Consolas, monospace" font-size="9.5" letter-spacing="1.8" fill="#7fa88b">PULL REQUESTS REVIEWED</text>
  <text x="36" y="286" font-family="ui-monospace, 'SF Mono', 'Cascadia Mono', Consolas, monospace" font-size="11" fill="#7fa88b">peak: <tspan fill="#d8ffe4">67 contributions</tspan> in a single day</text><text x="470" y="72" font-family="ui-monospace, 'SF Mono', 'Cascadia Mono', Consolas, monospace" font-size="9.5" letter-spacing="1.8" fill="#7fa88b">CONTRIBUTIONS PER YEAR</text>
  <text x="458" y="97" text-anchor="end" font-family="ui-monospace, 'SF Mono', 'Cascadia Mono', Consolas, monospace" font-size="11" fill="#7fa88b">2019</text>
  <rect x="470" y="88" width="280" height="12" rx="4" fill="rgba(70, 242, 122, 0.08)"/>
  <path d="M470 88 h0 a2 2 0 0 1 2 2 v8 a2 2 0 0 1 -2 2 h-0 z" fill="#46f27a"/>
  <text x="762" y="98" font-family="ui-monospace, 'SF Mono', 'Cascadia Mono', Consolas, monospace" font-size="11" fill="#d8ffe4">1</text>
  <text x="458" y="124.75" text-anchor="end" font-family="ui-monospace, 'SF Mono', 'Cascadia Mono', Consolas, monospace" font-size="11" fill="#7fa88b">2020</text>
  <rect x="470" y="115.75" width="280" height="12" rx="4" fill="rgba(70, 242, 122, 0.08)"/>
  <path d="M470 115.75 h0 a2 2 0 0 1 2 2 v8 a2 2 0 0 1 -2 2 h-0 z" fill="#46f27a"/>
  <text x="762" y="125.75" font-family="ui-monospace, 'SF Mono', 'Cascadia Mono', Consolas, monospace" font-size="11" fill="#d8ffe4">1</text>
  <text x="458" y="152.5" text-anchor="end" font-family="ui-monospace, 'SF Mono', 'Cascadia Mono', Consolas, monospace" font-size="11" fill="#7fa88b">2021</text>
  <rect x="470" y="143.5" width="280" height="12" rx="4" fill="rgba(70, 242, 122, 0.08)"/>
  <path d="M470 143.5 h0 a2.5951671631909963 2.5951671631909963 0 0 1 2.5951671631909963 2.5951671631909963 v6.8096656736180075 a2.5951671631909963 2.5951671631909963 0 0 1 -2.5951671631909963 2.5951671631909963 h-0 z" fill="#46f27a"/>
  <text x="762" y="153.5" font-family="ui-monospace, 'SF Mono', 'Cascadia Mono', Consolas, monospace" font-size="11" fill="#d8ffe4">28</text>
  <text x="458" y="180.25" text-anchor="end" font-family="ui-monospace, 'SF Mono', 'Cascadia Mono', Consolas, monospace" font-size="11" fill="#7fa88b">2022</text>
  <rect x="470" y="171.25" width="280" height="12" rx="4" fill="rgba(70, 242, 122, 0.08)"/>
  <path d="M470 171.25 h12.497848394571335 a4 4 0 0 1 4 4 v4 a4 4 0 0 1 -4 4 h-12.497848394571335 z" fill="#46f27a"/>
  <text x="762" y="181.25" font-family="ui-monospace, 'SF Mono', 'Cascadia Mono', Consolas, monospace" font-size="11" fill="#d8ffe4">178</text>
  <text x="458" y="208" text-anchor="end" font-family="ui-monospace, 'SF Mono', 'Cascadia Mono', Consolas, monospace" font-size="11" fill="#7fa88b">2023</text>
  <rect x="470" y="199" width="280" height="12" rx="4" fill="rgba(70, 242, 122, 0.08)"/>
  <path d="M470 199 h231.4187355180404 a4 4 0 0 1 4 4 v4 a4 4 0 0 1 -4 4 h-231.4187355180404 z" fill="#46f27a"/>
  <text x="762" y="209" font-family="ui-monospace, 'SF Mono', 'Cascadia Mono', Consolas, monospace" font-size="11" fill="#d8ffe4">2,540</text>
  <text x="458" y="235.75" text-anchor="end" font-family="ui-monospace, 'SF Mono', 'Cascadia Mono', Consolas, monospace" font-size="11" fill="#7fa88b">2024</text>
  <rect x="470" y="226.75" width="280" height="12" rx="4" fill="rgba(70, 242, 122, 0.08)"/>
  <path d="M470 226.75 h276 a4 4 0 0 1 4 4 v4 a4 4 0 0 1 -4 4 h-276 z" fill="#46f27a"/>
  <text x="762" y="236.75" font-family="ui-monospace, 'SF Mono', 'Cascadia Mono', Consolas, monospace" font-size="11" fill="#d8ffe4">3,021</text>
  <text x="458" y="263.5" text-anchor="end" font-family="ui-monospace, 'SF Mono', 'Cascadia Mono', Consolas, monospace" font-size="11" fill="#7fa88b">2025</text>
  <rect x="470" y="254.5" width="280" height="12" rx="4" fill="rgba(70, 242, 122, 0.08)"/>
  <path d="M470 254.5 h232.71631909963588 a4 4 0 0 1 4 4 v4 a4 4 0 0 1 -4 4 h-232.71631909963588 z" fill="#46f27a"/>
  <text x="762" y="264.5" font-family="ui-monospace, 'SF Mono', 'Cascadia Mono', Consolas, monospace" font-size="11" fill="#d8ffe4">2,554</text>
  <text x="458" y="291.25" text-anchor="end" font-family="ui-monospace, 'SF Mono', 'Cascadia Mono', Consolas, monospace" font-size="11" fill="#7fa88b">2026</text>
  <rect x="470" y="282.25" width="280" height="12" rx="4" fill="rgba(70, 242, 122, 0.08)"/>
  <path d="M470 282.25 h261.633896060907 a4 4 0 0 1 4 4 v4 a4 4 0 0 1 -4 4 h-261.633896060907 z" fill="#46f27a"/>
  <text x="762" y="292.25" font-family="ui-monospace, 'SF Mono', 'Cascadia Mono', Consolas, monospace" font-size="11" fill="#d8ffe4">2,866</text>
</svg>